<svg width="81" height="80" viewBox="0 0 81 80" fill="none" xmlns="http://www.w3.org/2000/svg">
<path d="M71.99 47.0167L60.5 41.2734V40.0001C60.4999 39.4249 60.351 38.8595 60.0677 38.359C59.7844 37.8584 59.3764 37.4396 58.8834 37.1434L43.8334 28.1134V20.0001H50.5V13.3334H43.8334V6.66675H37.1667V13.3334H30.5V20.0001H37.1667V28.1134L22.1167 37.1434C21.6236 37.4396 21.2157 37.8584 20.9324 38.359C20.6491 38.8595 20.5001 39.4249 20.5 40.0001V41.2734L9.01002 47.0201C8.45642 47.2967 7.99076 47.722 7.66519 48.2483C7.33963 48.7746 7.16702 49.3812 7.16669 50.0001V70.0001C7.16669 70.8841 7.51788 71.732 8.143 72.3571C8.76812 72.9822 9.61597 73.3334 10.5 73.3334H70.5C71.3841 73.3334 72.2319 72.9822 72.857 72.3571C73.4822 71.732 73.8334 70.8841 73.8334 70.0001V50.0001C73.8334 48.7367 73.12 47.5834 71.99 47.0167ZM13.8334 52.0601L20.5 48.7267V66.6667H13.8334V52.0601ZM40.5 50.0001C38.7319 50.0001 37.0362 50.7025 35.786 51.9527C34.5357 53.2029 33.8334 54.8986 33.8334 56.6667V66.6667H27.1667V41.8867L40.5 33.8867L53.8334 41.8867V66.6667H47.1667V56.6667C47.1667 54.8986 46.4643 53.2029 45.2141 51.9527C43.9638 50.7025 42.2681 50.0001 40.5 50.0001ZM67.1667 66.6667H60.5V48.7267L67.1667 52.0601V66.6667Z" fill="#021D66"/>
</svg>
