<svg width="25" height="24" viewBox="0 0 25 24" fill="none" xmlns="http://www.w3.org/2000/svg">
<path d="M18.1895 11.25H4.25C4.05109 11.25 3.86032 11.329 3.71967 11.4696C3.57902 11.6103 3.5 11.8011 3.5 12C3.5 12.1989 3.57902 12.3896 3.71967 12.5303C3.86032 12.671 4.05109 12.75 4.25 12.75H18.1895L12.719 18.219C12.5782 18.3598 12.4991 18.5508 12.4991 18.75C12.4991 18.9491 12.5782 19.1401 12.719 19.281C12.8598 19.4218 13.0508 19.5009 13.25 19.5009C13.4492 19.5009 13.6402 19.4218 13.781 19.281L20.531 12.531C20.6008 12.4613 20.6563 12.3785 20.6941 12.2874C20.7319 12.1963 20.7513 12.0986 20.7513 12C20.7513 11.9013 20.7319 11.8036 20.6941 11.7125C20.6563 11.6214 20.6008 11.5386 20.531 11.469L13.781 4.71897C13.6402 4.57814 13.4492 4.49902 13.25 4.49902C13.0508 4.49902 12.8598 4.57814 12.719 4.71897C12.5782 4.8598 12.4991 5.05081 12.4991 5.24997C12.4991 5.44913 12.5782 5.64014 12.719 5.78097L18.1895 11.25Z" fill="white"/>
</svg>
