<svg width="60" height="61" viewBox="0 0 60 61" fill="none" xmlns="http://www.w3.org/2000/svg">
<g clip-path="url(#clip0_3_50)">
<path d="M54.1992 20.6562C55.0781 21.1445 55.8789 21.7402 56.6016 22.4434C57.3242 23.1465 57.9297 23.9277 58.418 24.7871C58.9062 25.6465 59.2969 26.5547 59.5898 27.5117C59.8828 28.4688 60.0195 29.4648 60 30.5H56.25C56.25 29.4844 56.0547 28.5176 55.6641 27.5996C55.2734 26.6816 54.7363 25.8906 54.0527 25.2266C53.3691 24.5625 52.5684 24.0254 51.6504 23.6152C50.7324 23.2051 49.7656 23 48.75 23C47.7148 23 46.748 23.1953 45.8496 23.5859C44.9512 23.9766 44.1602 24.5137 43.4766 25.1973C42.793 25.8809 42.2559 26.6816 41.8652 27.5996C41.4746 28.5176 41.2695 29.4844 41.25 30.5C41.25 32.2773 40.8496 33.9668 40.0488 35.5684C39.248 37.1699 38.125 38.498 36.6797 39.5527C37.9492 40.1973 39.0918 40.9883 40.1074 41.9258C41.123 42.8633 42.002 43.918 42.7441 45.0898C43.4863 46.2617 44.043 47.5117 44.4141 48.8398C44.7852 50.168 44.9805 51.5547 45 53H41.25C41.25 51.457 40.957 50.002 40.3711 48.6348C39.7852 47.2676 38.9746 46.0762 37.9395 45.0605C36.9043 44.0449 35.7129 43.2441 34.3652 42.6582C33.0176 42.0723 31.5625 41.7695 30 41.75C28.457 41.75 27.002 42.043 25.6348 42.6289C24.2676 43.2148 23.0762 44.0254 22.0605 45.0605C21.0449 46.0957 20.2441 47.2871 19.6582 48.6348C19.0723 49.9824 18.7695 51.4375 18.75 53H15C15 51.5742 15.1953 50.1973 15.5859 48.8691C15.9766 47.541 16.5332 46.291 17.2559 45.1191C17.9785 43.9473 18.8477 42.8926 19.8633 41.9551C20.8789 41.0176 22.0312 40.2168 23.3203 39.5527C21.8945 38.498 20.7812 37.1699 19.9805 35.5684C19.1797 33.9668 18.7695 32.2773 18.75 30.5C18.75 29.4844 18.5547 28.5176 18.1641 27.5996C17.7734 26.6816 17.2363 25.8906 16.5527 25.2266C15.8691 24.5625 15.0684 24.0254 14.1504 23.6152C13.2324 23.2051 12.2656 23 11.25 23C10.2148 23 9.24805 23.1953 8.34961 23.5859C7.45117 23.9766 6.66016 24.5137 5.97656 25.1973C5.29297 25.8809 4.75586 26.6816 4.36523 27.5996C3.97461 28.5176 3.76953 29.4844 3.75 30.5H0C0 29.4844 0.136719 28.498 0.410156 27.541C0.683594 26.584 1.06445 25.6758 1.55273 24.8164C2.04102 23.957 2.65625 23.1758 3.39844 22.4727C4.14062 21.7695 4.94141 21.1641 5.80078 20.6562C5.15625 19.9727 4.6582 19.1816 4.30664 18.2832C3.95508 17.3848 3.76953 16.457 3.75 15.5C3.75 14.4844 3.94531 13.5176 4.33594 12.5996C4.72656 11.6816 5.26367 10.8906 5.94727 10.2266C6.63086 9.5625 7.42188 9.02539 8.32031 8.61523C9.21875 8.20508 10.1953 8 11.25 8C12.2656 8 13.2324 8.19531 14.1504 8.58594C15.0684 8.97656 15.8594 9.51367 16.5234 10.1973C17.1875 10.8809 17.7246 11.6816 18.1348 12.5996C18.5449 13.5176 18.75 14.4844 18.75 15.5C18.75 16.457 18.5742 17.3848 18.2227 18.2832C17.8711 19.1816 17.3633 19.9727 16.6992 20.6562C18.3008 21.5352 19.6094 22.7461 20.625 24.2891C21.6797 22.7266 23.0273 21.4961 24.668 20.5977C26.3086 19.6992 28.0859 19.25 30 19.25C31.8945 19.25 33.6621 19.6992 35.3027 20.5977C36.9434 21.4961 38.3008 22.7266 39.375 24.2891C40.3906 22.7461 41.6992 21.5352 43.3008 20.6562C42.6562 19.9727 42.1582 19.1816 41.8066 18.2832C41.4551 17.3848 41.2695 16.457 41.25 15.5C41.25 14.4844 41.4453 13.5176 41.8359 12.5996C42.2266 11.6816 42.7637 10.8906 43.4473 10.2266C44.1309 9.5625 44.9219 9.02539 45.8203 8.61523C46.7188 8.20508 47.6953 8 48.75 8C49.7656 8 50.7324 8.19531 51.6504 8.58594C52.5684 8.97656 53.3594 9.51367 54.0234 10.1973C54.6875 10.8809 55.2246 11.6816 55.6348 12.5996C56.0449 13.5176 56.25 14.4844 56.25 15.5C56.25 16.457 56.0742 17.3848 55.7227 18.2832C55.3711 19.1816 54.8633 19.9727 54.1992 20.6562ZM7.5 15.5C7.5 16.0273 7.59766 16.5156 7.79297 16.9648C7.98828 17.4141 8.25195 17.8047 8.58398 18.1367C8.91602 18.4688 9.31641 18.7422 9.78516 18.957C10.2539 19.1719 10.7422 19.2695 11.25 19.25C11.7773 19.25 12.2656 19.1523 12.7148 18.957C13.1641 18.7617 13.5547 18.498 13.8867 18.166C14.2188 17.834 14.4922 17.4336 14.707 16.9648C14.9219 16.4961 15.0195 16.0078 15 15.5C15 14.9727 14.9023 14.4844 14.707 14.0352C14.5117 13.5859 14.248 13.1953 13.916 12.8633C13.584 12.5312 13.1836 12.2578 12.7148 12.043C12.2461 11.8281 11.7578 11.7305 11.25 11.75C10.7227 11.75 10.2344 11.8477 9.78516 12.043C9.33594 12.2383 8.94531 12.502 8.61328 12.834C8.28125 13.166 8.00781 13.5664 7.79297 14.0352C7.57812 14.5039 7.48047 14.9922 7.5 15.5ZM30 38C31.0156 38 31.9824 37.8047 32.9004 37.4141C33.8184 37.0234 34.6094 36.4863 35.2734 35.8027C35.9375 35.1191 36.4746 34.3281 36.8848 33.4297C37.2949 32.5312 37.5 31.5547 37.5 30.5C37.5 29.4844 37.3047 28.5176 36.9141 27.5996C36.5234 26.6816 35.9863 25.8906 35.3027 25.2266C34.6191 24.5625 33.8184 24.0254 32.9004 23.6152C31.9824 23.2051 31.0156 23 30 23C28.9648 23 27.998 23.1953 27.0996 23.5859C26.2012 23.9766 25.4102 24.5137 24.7266 25.1973C24.043 25.8809 23.5059 26.6816 23.1152 27.5996C22.7246 28.5176 22.5195 29.4844 22.5 30.5C22.5 31.5352 22.6953 32.502 23.0859 33.4004C23.4766 34.2988 24.0137 35.0898 24.6973 35.7734C25.3809 36.457 26.1719 36.9941 27.0703 37.3848C27.9688 37.7754 28.9453 37.9805 30 38ZM45 15.5C45 16.0273 45.0977 16.5156 45.293 16.9648C45.4883 17.4141 45.752 17.8047 46.084 18.1367C46.416 18.4688 46.8164 18.7422 47.2852 18.957C47.7539 19.1719 48.2422 19.2695 48.75 19.25C49.2773 19.25 49.7656 19.1523 50.2148 18.957C50.6641 18.7617 51.0547 18.498 51.3867 18.166C51.7188 17.834 51.9922 17.4336 52.207 16.9648C52.4219 16.4961 52.5195 16.0078 52.5 15.5C52.5 14.9727 52.4023 14.4844 52.207 14.0352C52.0117 13.5859 51.748 13.1953 51.416 12.8633C51.084 12.5312 50.6836 12.2578 50.2148 12.043C49.7461 11.8281 49.2578 11.7305 48.75 11.75C48.2227 11.75 47.7344 11.8477 47.2852 12.043C46.8359 12.2383 46.4453 12.502 46.1133 12.834C45.7812 13.166 45.5078 13.5664 45.293 14.0352C45.0781 14.5039 44.9805 14.9922 45 15.5Z" fill="#021D66"/>
</g>
<defs>
<clipPath id="clip0_3_50">
<rect width="60" height="60" fill="white" transform="translate(0 0.5)"/>
</clipPath>
</defs>
</svg>
