<svg width="55" height="55" viewBox="0 0 55 55" fill="none" xmlns="http://www.w3.org/2000/svg">
<path d="M4.58334 50.4167C4.58334 45.5544 6.51488 40.8912 9.95305 37.4531C13.3912 34.0149 18.0544 32.0834 22.9167 32.0834C27.779 32.0834 32.4421 34.0149 35.8803 37.4531C39.3185 40.8912 41.25 45.5544 41.25 50.4167H36.6667C36.6667 46.77 35.218 43.2726 32.6394 40.694C30.0608 38.1153 26.5634 36.6667 22.9167 36.6667C19.2699 36.6667 15.7726 38.1153 13.194 40.694C10.6153 43.2726 9.16667 46.77 9.16667 50.4167H4.58334ZM22.9167 29.7917C15.3198 29.7917 9.16667 23.6386 9.16667 16.0417C9.16667 8.44481 15.3198 2.29169 22.9167 2.29169C30.5135 2.29169 36.6667 8.44481 36.6667 16.0417C36.6667 23.6386 30.5135 29.7917 22.9167 29.7917ZM22.9167 25.2084C27.9813 25.2084 32.0833 21.1063 32.0833 16.0417C32.0833 10.9771 27.9813 6.87502 22.9167 6.87502C17.8521 6.87502 13.75 10.9771 13.75 16.0417C13.75 21.1063 17.8521 25.2084 22.9167 25.2084ZM41.9008 33.6944C45.1217 35.1444 47.8552 37.4939 49.7725 40.4605C51.6898 43.4271 52.7093 46.8845 52.7083 50.4167H48.125C48.1258 47.7674 47.3613 45.1743 45.9233 42.9492C44.4853 40.7242 42.4351 38.9619 40.0194 37.8744L41.9008 33.6944ZM40.3242 7.82148C42.6331 8.7732 44.6072 10.3894 45.9961 12.4649C47.3849 14.5405 48.1259 16.9818 48.125 19.4792C48.1254 22.624 46.9503 25.6553 44.8302 27.978C42.7102 30.3008 39.7984 31.747 36.6667 32.0329V27.4198C38.3647 27.1766 39.94 26.3955 41.1613 25.1911C42.3827 23.9867 43.1858 22.4224 43.4527 20.728C43.7195 19.0336 43.4362 17.2982 42.6442 15.7767C41.8522 14.2551 40.5933 13.0276 39.0523 12.2742L40.3242 7.82148Z" fill="#021D66"/>
</svg>
