<svg width="53" height="49" viewBox="0 0 53 49" fill="none" xmlns="http://www.w3.org/2000/svg">
<path d="M20.875 5.15876V37.7463C20.875 37.9717 20.8344 38.1953 20.755 38.4063L32.125 44.0913V10.7838L20.875 5.15876ZM17.125 5.00876L4 10.8438V44.2413L17.2263 38.3613C17.1584 38.1633 17.1242 37.9555 17.125 37.7463V5.00876ZM18.1525 0.448762C18.4273 0.309399 18.7323 0.239915 19.0403 0.246455C19.3484 0.252996 19.6501 0.33536 19.9188 0.486262L34.0488 7.55126L50.1138 0.411262C50.3992 0.284431 50.7119 0.23094 51.0233 0.255648C51.3347 0.280356 51.635 0.382481 51.8969 0.552743C52.1589 0.723006 52.3741 0.956011 52.5231 1.23059C52.672 1.50517 52.75 1.81262 52.75 2.12501V39.625C52.7501 39.9878 52.6449 40.3428 52.4472 40.647C52.2495 40.9512 51.9678 41.1915 51.6363 41.3388L34.7613 48.8388C34.5081 48.9512 34.2333 49.0061 33.9564 48.9996C33.6796 48.9931 33.4076 48.9254 33.16 48.8013L18.9513 41.6988L2.89 48.8388C2.60452 48.9656 2.29187 49.0191 1.98045 48.9944C1.66904 48.9697 1.36874 48.8675 1.10682 48.6973C0.844908 48.527 0.629685 48.294 0.480706 48.0194C0.331727 47.7449 0.253714 47.4374 0.253754 47.125V9.62501C0.253708 9.26223 0.358905 8.90723 0.556593 8.60304C0.754281 8.29886 1.03597 8.05855 1.3675 7.91126L18.1525 0.448762ZM35.875 10.8438V44.2413L49 38.4063V5.01251L35.875 10.8438Z" fill="#021D66"/>
</svg>
