<svg width="24" height="24" viewBox="0 0 24 24" fill="none" xmlns="http://www.w3.org/2000/svg">
<path d="M11.4688 17.0306L3.96878 9.53063C3.86377 9.42573 3.79225 9.29204 3.76326 9.14648C3.73427 9.00092 3.74913 8.85002 3.80594 8.71291C3.86276 8.57579 3.95897 8.45861 4.08242 8.37621C4.20587 8.29381 4.35099 8.24988 4.49941 8.25H19.4994C19.6478 8.24988 19.793 8.29381 19.9164 8.37621C20.0398 8.45861 20.1361 8.57579 20.1929 8.71291C20.2497 8.85002 20.2645 9.00092 20.2356 9.14648C20.2066 9.29204 20.135 9.42573 20.03 9.53063L12.53 17.0306C12.4604 17.1004 12.3777 17.1557 12.2866 17.1934C12.1956 17.2312 12.098 17.2506 11.9994 17.2506C11.9008 17.2506 11.8033 17.2312 11.7122 17.1934C11.6212 17.1557 11.5384 17.1004 11.4688 17.0306Z" fill="white"/>
</svg>
