<svg width="24" height="24" viewBox="0 0 24 24" fill="none" xmlns="http://www.w3.org/2000/svg">
<path fill-rule="evenodd" clip-rule="evenodd" d="M15.5828 1.41989C16.8948 1.86089 17.7498 3.09589 17.7498 4.71489C17.7498 5.73189 17.1718 6.66889 16.5268 7.41489C15.8638 8.18389 15.0258 8.87289 14.2918 9.40789L14.1988 9.47589C13.4868 9.99589 12.8988 10.4259 11.9998 10.4259C11.0998 10.4259 10.5138 9.99589 9.80178 9.47589L9.70778 9.40789C8.97378 8.87289 8.13578 8.18389 7.47278 7.41589C6.82978 6.66889 6.24978 5.73189 6.24978 4.71489C6.24978 3.09589 7.10478 1.86189 8.41678 1.41989C9.53678 1.04289 10.8388 1.29189 11.9998 2.13689C13.1608 1.29189 14.4638 1.04289 15.5828 1.41989ZM15.1048 2.84189C14.4528 2.62189 13.4798 2.76389 12.5078 3.65789C12.3694 3.78509 12.1883 3.85567 12.0003 3.85567C11.8123 3.85567 11.6312 3.78509 11.4928 3.65789C10.5198 2.76389 9.54778 2.62189 8.89578 2.84189C8.26978 3.05189 7.74978 3.65589 7.74978 4.71489C7.74978 5.18189 8.03478 5.76989 8.60878 6.43589C9.16478 7.08089 9.90078 7.69289 10.5918 8.19589C11.4348 8.81089 11.6348 8.92589 11.9998 8.92589C12.3648 8.92589 12.5648 8.81089 13.4088 8.19589C14.0988 7.69289 14.8348 7.08089 15.3908 6.43589C15.9658 5.76989 16.2508 5.18189 16.2508 4.71489C16.2508 3.65489 15.7298 3.05189 15.1048 2.84189ZM8.68378 14.4479C10.5498 14.0859 12.5468 14.1679 14.1638 15.1319C14.3898 15.2669 14.6038 15.4359 14.7888 15.6439C15.1648 16.0659 15.3588 16.5909 15.3678 17.1169C15.5584 16.9929 15.7508 16.8572 15.9448 16.7099L17.7528 15.3449C18.2057 15.0125 18.7529 14.8332 19.3148 14.8332C19.8766 14.8332 20.4238 15.0125 20.8768 15.3449C21.7118 15.9749 22.0458 17.1079 21.4468 18.0669C21.0218 18.7489 20.3818 19.6919 19.7298 20.2959C19.0698 20.9059 18.1328 21.4189 17.4238 21.7619C16.5618 22.1779 15.6318 22.4069 14.7268 22.5539C12.8768 22.8539 10.9528 22.8069 9.12478 22.4309C8.18207 22.2371 7.22221 22.1389 6.25978 22.1379H3.99978C3.80087 22.1379 3.6101 22.0589 3.46945 21.9182C3.3288 21.7776 3.24978 21.5868 3.24978 21.3879C3.24978 21.189 3.3288 20.9982 3.46945 20.8576C3.6101 20.7169 3.80087 20.6379 3.99978 20.6379H6.25978C7.32178 20.6379 8.39478 20.7479 9.42778 20.9619C11.0939 21.3038 12.8082 21.3414 14.4878 21.0729C15.3158 20.9389 16.0898 20.7399 16.7718 20.4109C17.4548 20.0809 18.2228 19.6469 18.7098 19.1949C19.2028 18.7389 19.7538 17.9479 20.1748 17.2739C20.3018 17.0699 20.2838 16.7759 19.9728 16.5409C19.7803 16.4049 19.5504 16.3318 19.3148 16.3318C19.0791 16.3318 18.8492 16.4049 18.6568 16.5409L16.8498 17.9069C16.1278 18.4519 15.2398 19.0349 14.1388 19.2099C14.0234 19.2285 13.9078 19.2448 13.7918 19.2589C13.7344 19.2689 13.6748 19.2756 13.6128 19.2789C12.9703 19.3412 12.3233 19.3412 11.6808 19.2789C11.5812 19.2717 11.484 19.2446 11.395 19.1994C11.306 19.1541 11.2269 19.0915 11.1624 19.0152C11.0979 18.939 11.0493 18.8506 11.0194 18.7553C10.9895 18.6601 10.9789 18.5598 10.9883 18.4603C10.9977 18.3609 11.0269 18.2644 11.0741 18.1764C11.1213 18.0883 11.1856 18.0107 11.2632 17.9478C11.3408 17.885 11.4302 17.8383 11.5262 17.8105C11.6221 17.7827 11.7226 17.7743 11.8218 17.7859C12.4498 17.8449 13.0118 17.8319 13.4898 17.7829L13.5198 17.7799C13.6131 17.722 13.6924 17.6441 13.7519 17.5518C13.8115 17.4596 13.8498 17.3553 13.8642 17.2464C13.8785 17.1375 13.8685 17.0268 13.8349 16.9223C13.8013 16.8178 13.7449 16.722 13.6698 16.6419C13.5896 16.5547 13.4969 16.4799 13.3948 16.4199C12.2138 15.7149 10.6358 15.5979 8.96878 15.9199C7.34033 16.2468 5.79662 16.9055 4.43378 17.8549C4.35341 17.9119 4.2626 17.9525 4.16654 17.9744C4.07048 17.9963 3.97104 17.9991 3.87391 17.9825C3.77678 17.966 3.68386 17.9305 3.60045 17.8781C3.51704 17.8256 3.44477 17.7573 3.38778 17.6769C3.33078 17.5965 3.29018 17.5057 3.26828 17.4097C3.24638 17.3136 3.24362 17.2142 3.26014 17.117C3.29353 16.9209 3.40347 16.746 3.56578 16.6309C5.1031 15.5583 6.84556 14.8151 8.68378 14.4479Z" fill="white"/>
</svg>
