<svg width="24" height="24" viewBox="0 0 24 24" fill="none" xmlns="http://www.w3.org/2000/svg">
<path fill-rule="evenodd" clip-rule="evenodd" d="M14.3248 3.74996H9.67478C9.5278 4.47062 9.17214 5.13216 8.65206 5.65224C8.13199 6.17232 7.47045 6.52798 6.74978 6.67496V7.32496C7.47045 7.47193 8.13199 7.82759 8.65206 8.34767C9.17214 8.86775 9.5278 9.52929 9.67478 10.25H14.3248C14.4718 9.52929 14.8274 8.86775 15.3475 8.34767C15.8676 7.82759 16.5291 7.47193 17.2498 7.32496V6.67496C16.5291 6.52798 15.8676 6.17232 15.3475 5.65224C14.8274 5.13216 14.4718 4.47062 14.3248 3.74996ZM14.9298 2.25296C14.6551 2.25029 14.3624 2.24929 14.0518 2.24996H9.94778C9.63711 2.24996 9.34478 2.25096 9.07078 2.25296C9.01612 2.24946 8.96127 2.25047 8.90678 2.25596C8.45478 2.26396 8.05378 2.28296 7.70578 2.32996C7.07778 2.41396 6.51078 2.59996 6.05578 3.05496C5.59978 3.51096 5.41378 4.07796 5.32978 4.70496C5.28278 5.05396 5.26378 5.45496 5.25578 5.90696C5.25034 5.96112 5.24934 6.01563 5.25278 6.06996C5.25011 6.34529 5.24911 6.63796 5.24978 6.94796V7.05196C5.24978 7.36196 5.25078 7.65462 5.25278 7.92996C5.24934 7.98428 5.25034 8.03879 5.25578 8.09296C5.26378 8.54596 5.28278 8.94596 5.32978 9.29396C5.41378 9.92196 5.59978 10.489 6.05578 10.944C6.51078 11.4 7.07778 11.586 7.70578 11.67C8.05378 11.717 8.45478 11.736 8.90678 11.744C8.96127 11.7494 9.01612 11.7504 9.07078 11.747C9.34478 11.7496 9.63711 11.7506 9.94778 11.75H14.0518C14.3618 11.75 14.6544 11.749 14.9298 11.747C14.9841 11.7504 15.0386 11.7494 15.0928 11.744C15.5458 11.736 15.9468 11.717 16.2938 11.67C16.9218 11.586 17.4888 11.4 17.9438 10.944C18.3998 10.489 18.5858 9.92196 18.6698 9.29396C18.7163 8.89527 18.741 8.49434 18.7438 8.09296C18.7492 8.03879 18.7502 7.98428 18.7468 7.92996C18.7494 7.65462 18.7504 7.36196 18.7498 7.05196V6.94796C18.7498 6.63796 18.7488 6.34529 18.7468 6.06996C18.7502 6.01563 18.7492 5.96112 18.7438 5.90696C18.741 5.50557 18.7163 5.10464 18.6698 4.70596C18.5858 4.07796 18.3998 3.51096 17.9448 3.05596C17.4888 2.59996 16.9218 2.41396 16.2948 2.32996C15.8958 2.28336 15.4945 2.25866 15.0928 2.25596C15.0386 2.25052 14.9841 2.24952 14.9298 2.25296ZM15.8938 3.79396C16.0072 4.09303 16.1828 4.36464 16.4089 4.59081C16.6351 4.81698 16.9067 4.99256 17.2058 5.10596C17.1995 5.03914 17.1918 4.97246 17.1828 4.90596C17.1218 4.44396 17.0138 4.24596 16.8828 4.11596C16.7518 3.98596 16.5558 3.87896 16.0948 3.81596C16.0283 3.80728 15.9616 3.79995 15.8948 3.79396M17.2068 8.89396C16.9077 9.00735 16.6361 9.18294 16.4099 9.40911C16.1838 9.63528 16.0082 9.90688 15.8948 10.206C15.9648 10.1993 16.0314 10.192 16.0948 10.184C16.5568 10.121 16.7548 10.014 16.8848 9.88396C17.0148 9.75396 17.1228 9.55596 17.1848 9.09396C17.1928 9.03062 17.2001 8.96396 17.2068 8.89396ZM8.10678 10.206C7.99338 9.90688 7.8178 9.63528 7.59163 9.40911C7.36546 9.18294 7.09386 9.00735 6.79478 8.89396C6.80145 8.96396 6.80911 9.03062 6.81778 9.09396C6.87978 9.55596 6.98678 9.75396 7.11778 9.88396C7.24878 10.014 7.44478 10.121 7.90578 10.184C7.96978 10.192 8.03678 10.1993 8.10678 10.206ZM6.79478 5.10596C7.09386 4.99256 7.36546 4.81698 7.59163 4.59081C7.8178 4.36464 7.99338 4.09303 8.10678 3.79396C8.03678 3.80062 7.97011 3.80829 7.90678 3.81696C7.44478 3.87896 7.24678 3.98596 7.11678 4.11696C6.98678 4.24796 6.87978 4.44396 6.81678 4.90496L6.79478 5.10596ZM11.9998 6.74996C11.9335 6.74996 11.8699 6.77629 11.823 6.82318C11.7761 6.87006 11.7498 6.93365 11.7498 6.99996C11.7498 7.06626 11.7761 7.12985 11.823 7.17673C11.8699 7.22362 11.9335 7.24996 11.9998 7.24996C12.0661 7.24996 12.1297 7.22362 12.1766 7.17673C12.2234 7.12985 12.2498 7.06626 12.2498 6.99996C12.2498 6.93365 12.2234 6.87006 12.1766 6.82318C12.1297 6.77629 12.0661 6.74996 11.9998 6.74996ZM10.2498 6.99996C10.2498 6.53583 10.4342 6.09071 10.7623 5.76252C11.0905 5.43433 11.5357 5.24996 11.9998 5.24996C12.4639 5.24996 12.909 5.43433 13.2372 5.76252C13.5654 6.09071 13.7498 6.53583 13.7498 6.99996C13.7498 7.46408 13.5654 7.9092 13.2372 8.23739C12.909 8.56558 12.4639 8.74996 11.9998 8.74996C11.5357 8.74996 11.0905 8.56558 10.7623 8.23739C10.4342 7.9092 10.2498 7.46408 10.2498 6.99996ZM8.68378 14.448C10.5498 14.087 12.5468 14.168 14.1638 15.132C14.3898 15.267 14.6038 15.436 14.7888 15.644C15.1648 16.067 15.3588 16.591 15.3678 17.117C15.5584 16.993 15.7508 16.8573 15.9448 16.71L17.7528 15.345C18.2057 15.0125 18.7529 14.8333 19.3148 14.8333C19.8766 14.8333 20.4238 15.0125 20.8768 15.345C21.7118 15.975 22.0458 17.108 21.4468 18.068C21.0218 18.749 20.3818 19.692 19.7298 20.296C19.0698 20.906 18.1328 21.42 17.4238 21.762C16.5618 22.178 15.6318 22.408 14.7268 22.554C12.8768 22.854 10.9528 22.808 9.12478 22.431C8.18207 22.2371 7.22221 22.139 6.25978 22.138H3.99978C3.80087 22.138 3.6101 22.0589 3.46945 21.9183C3.3288 21.7776 3.24978 21.5869 3.24978 21.388C3.24978 21.189 3.3288 20.9983 3.46945 20.8576C3.6101 20.717 3.80087 20.638 3.99978 20.638H6.25978C7.32178 20.638 8.39478 20.749 9.42778 20.962C11.0939 21.3038 12.8082 21.3415 14.4878 21.073C15.3158 20.939 16.0898 20.74 16.7718 20.411C17.4548 20.081 18.2228 19.647 18.7098 19.196C19.2028 18.739 19.7538 17.948 20.1748 17.274C20.3018 17.07 20.2838 16.777 19.9728 16.542C19.6028 16.262 19.0258 16.262 18.6568 16.542L16.8498 17.907C16.1278 18.452 15.2398 19.035 14.1388 19.211C14.0234 19.2292 13.9077 19.2452 13.7918 19.259C13.7344 19.269 13.6748 19.2756 13.6128 19.279C12.9703 19.3413 12.3233 19.3413 11.6808 19.279C11.5812 19.2717 11.484 19.2447 11.395 19.1994C11.306 19.1542 11.2269 19.0916 11.1624 19.0153C11.0979 18.9391 11.0493 18.8507 11.0194 18.7554C10.9895 18.6601 10.9789 18.5598 10.9883 18.4604C10.9977 18.361 11.0269 18.2644 11.0741 18.1764C11.1213 18.0884 11.1856 18.0107 11.2632 17.9479C11.3408 17.8851 11.4302 17.8384 11.5262 17.8106C11.6221 17.7828 11.7226 17.7744 11.8218 17.786C12.3765 17.8396 12.9352 17.8386 13.4898 17.783L13.5198 17.78C13.6131 17.7221 13.6924 17.6442 13.7519 17.5519C13.8115 17.4597 13.8498 17.3553 13.8642 17.2465C13.8785 17.1376 13.8685 17.0269 13.8349 16.9224C13.8013 16.8178 13.7449 16.7221 13.6698 16.642C13.5896 16.5548 13.4969 16.48 13.3948 16.42C12.2138 15.715 10.6358 15.598 8.96878 15.92C7.34033 16.2469 5.79662 16.9055 4.43378 17.855C4.35341 17.9119 4.2626 17.9526 4.16654 17.9745C4.07048 17.9964 3.97104 17.9991 3.87391 17.9826C3.77678 17.9661 3.68386 17.9306 3.60045 17.8781C3.51704 17.8257 3.44477 17.7573 3.38778 17.677C3.33078 17.5966 3.29018 17.5058 3.26828 17.4097C3.24638 17.3137 3.24362 17.2142 3.26014 17.1171C3.29353 16.9209 3.40347 16.7461 3.56578 16.631C5.1031 15.5584 6.84556 14.8151 8.68378 14.448Z" fill="white"/>
</svg>
